<svg width="938" height="327" viewBox="0 0 938 327" fill="none" xmlns="http://www.w3.org/2000/svg">
<g clip-path="url(#clip0_233_1002)">
<path d="M55.296 252L5.376 72.8H34.048L77.568 234.592H80.896L124.16 72.8H152.832L103.168 252H55.296ZM177.956 252V125.792H204.324V252H177.956ZM191.268 108.64C186.148 108.64 181.796 107.019 178.212 103.776C174.799 100.363 173.092 96.0107 173.092 90.72C173.092 85.4293 174.799 81.1627 178.212 77.92C181.796 74.5067 186.148 72.8 191.268 72.8C196.559 72.8 200.911 74.5067 204.324 77.92C207.737 81.1627 209.444 85.4293 209.444 90.72C209.444 96.0107 207.737 100.363 204.324 103.776C200.911 107.019 196.559 108.64 191.268 108.64ZM237.312 189.536V185.696C237.312 172.384 239.957 161.035 245.248 151.648C250.709 142.261 257.877 135.008 266.752 129.888C275.627 124.768 285.355 122.208 295.936 122.208C308.224 122.208 317.611 124.512 324.096 129.12C330.752 133.728 335.616 138.677 338.688 143.968H342.784V125.792H368.384V277.856C368.384 285.536 366.08 291.68 361.472 296.288C357.035 300.896 350.891 303.2 343.04 303.2H258.048V280.16H334.848C339.797 280.16 342.272 277.6 342.272 272.48V232.288H338.176C336.299 235.36 333.653 238.517 330.24 241.76C326.827 245.003 322.304 247.648 316.672 249.696C311.211 251.744 304.299 252.768 295.936 252.768C285.355 252.768 275.541 250.293 266.496 245.344C257.621 240.224 250.539 232.971 245.248 223.584C239.957 214.027 237.312 202.677 237.312 189.536ZM303.104 229.728C314.539 229.728 323.925 226.144 331.264 218.976C338.773 211.637 342.528 201.568 342.528 188.768V186.464C342.528 173.323 338.859 163.253 331.52 156.256C324.181 149.088 314.709 145.504 303.104 145.504C291.84 145.504 282.453 149.088 274.944 156.256C267.605 163.253 263.936 173.323 263.936 186.464V188.768C263.936 201.568 267.605 211.637 274.944 218.976C282.453 226.144 291.84 229.728 303.104 229.728ZM407.206 252V125.792H433.574V252H407.206ZM420.518 108.64C415.398 108.64 411.046 107.019 407.462 103.776C404.049 100.363 402.342 96.0107 402.342 90.72C402.342 85.4293 404.049 81.1627 407.462 77.92C411.046 74.5067 415.398 72.8 420.518 72.8C425.809 72.8 430.161 74.5067 433.574 77.92C436.987 81.1627 438.694 85.4293 438.694 90.72C438.694 96.0107 436.987 100.363 433.574 103.776C430.161 107.019 425.809 108.64 420.518 108.64ZM472.706 252V72.8H499.074V252H472.706ZM577.374 255.584C568.329 255.584 560.222 254.048 553.054 250.976C546.057 247.904 540.425 243.381 536.158 237.408C532.062 231.435 530.014 224.181 530.014 215.648C530.014 206.944 532.062 199.776 536.158 194.144C540.425 188.341 546.142 183.989 553.31 181.088C560.649 178.187 568.926 176.736 578.142 176.736H616.542V168.544C616.542 161.205 614.323 155.317 609.886 150.88C605.449 146.443 598.622 144.224 589.406 144.224C580.361 144.224 573.449 146.357 568.67 150.624C563.891 154.891 560.734 160.437 559.198 167.264L534.622 159.328C536.67 152.501 539.913 146.357 544.35 140.896C548.958 135.264 555.017 130.741 562.526 127.328C570.035 123.915 579.081 122.208 589.662 122.208C606.046 122.208 618.931 126.389 628.318 134.752C637.705 143.115 642.398 154.976 642.398 170.336V222.304C642.398 227.424 644.787 229.984 649.566 229.984H660.318V252H640.606C634.633 252 629.769 250.464 626.014 247.392C622.259 244.32 620.382 240.139 620.382 234.848V234.08H616.542C615.177 236.64 613.129 239.627 610.398 243.04C607.667 246.453 603.657 249.44 598.366 252C593.075 254.389 586.078 255.584 577.374 255.584ZM581.214 233.824C591.795 233.824 600.329 230.837 606.814 224.864C613.299 218.72 616.542 210.357 616.542 199.776V197.216H579.678C572.681 197.216 567.049 198.752 562.782 201.824C558.515 204.725 556.382 209.077 556.382 214.88C556.382 220.683 558.601 225.291 563.038 228.704C567.475 232.117 573.534 233.824 581.214 233.824ZM685.956 252V125.792H711.812V144.736H715.908C718.297 139.616 722.564 134.837 728.708 130.4C734.852 125.963 743.983 123.744 756.1 123.744C765.657 123.744 774.105 125.877 781.444 130.144C788.953 134.411 794.841 140.469 799.108 148.32C803.375 156 805.508 165.301 805.508 176.224V252H779.14V178.272C779.14 167.349 776.409 159.328 770.948 154.208C765.487 148.917 757.977 146.272 748.42 146.272C737.497 146.272 728.708 149.856 722.052 157.024C715.567 164.192 712.324 174.603 712.324 188.256V252H685.956ZM887.316 252C879.636 252 873.492 249.696 868.884 245.088C864.447 240.48 862.228 234.336 862.228 226.656V148.064H827.412V125.792H862.228V84.064H888.596V125.792H926.228V148.064H888.596V222.048C888.596 227.168 890.985 229.728 895.764 229.728H922.132V252H887.316Z" fill="#FAFAFA"/>
</g>
<defs>
<clipPath id="clip0_233_1002">
<rect width="938" height="327" fill="white"/>
</clipPath>
</defs>
</svg>
